<?xml version="1.0" encoding="UTF-8" standalone="no"?>
<!DOCTYPE svg PUBLIC "-//W3C//DTD SVG 1.1//EN"
 "http://www.w3.org/Graphics/SVG/1.1/DTD/svg11.dtd">
<!-- Generated by graphviz version 2.42.4 (0)
 -->
<!-- Title: example1 Pages: 1 -->
<svg width="1024pt" height="371pt"
 viewBox="0.00 0.00 1024.13 371.48" xmlns="http://www.w3.org/2000/svg" xmlns:xlink="http://www.w3.org/1999/xlink">
<g id="graph0" class="graph" transform="scale(1 1) rotate(0) translate(4 367.48)">
<title>example1</title>
<polygon fill="white" stroke="transparent" points="-4,4 -4,-367.48 1020.13,-367.48 1020.13,4 -4,4"/>
<g id="clust1" class="cluster">
<title>clusterLegend</title>
<polygon fill="none" stroke="black" points="8,-96.46 8,-355.48 540,-355.48 540,-96.46 8,-96.46"/>
<text text-anchor="middle" x="274" y="-340.28" font-family="Times,serif" font-size="14.00">Legend</text>
</g>
<!-- legendNode0 -->
<g id="node1" class="node">
<title>legendNode0</title>
<polygon fill="none" stroke="black" points="288.21,-288.53 290.99,-288.63 293.75,-288.77 296.47,-288.97 299.13,-289.21 301.74,-289.51 304.27,-289.84 306.72,-290.23 309.08,-290.65 311.34,-291.13 313.49,-291.64 315.52,-292.19 317.44,-292.79 319.22,-293.42 320.87,-294.08 322.38,-294.79 323.75,-295.52 324.98,-296.28 326.06,-297.07 326.99,-297.89 327.77,-298.73 328.4,-299.59 328.89,-300.47 329.22,-301.37 329.42,-302.28 329.47,-303.2 329.38,-304.13 329.16,-305.07 328.81,-306.01 328.34,-306.95 327.74,-307.89 327.04,-308.83 326.22,-309.76 325.3,-310.68 324.29,-311.59 323.18,-312.49 321.99,-313.37 320.73,-314.23 319.39,-315.07 317.98,-315.89 316.52,-316.68 315,-317.44 313.43,-318.17 311.82,-318.87 310.17,-319.54 308.48,-320.17 306.77,-320.76 305.03,-321.32 303.26,-321.83 301.48,-322.3 299.68,-322.73 297.86,-323.11 296.03,-323.45 294.2,-323.74 292.35,-323.99 290.5,-324.18 288.65,-324.33 286.79,-324.43 284.93,-324.48 283.07,-324.48 281.21,-324.43 279.35,-324.33 277.5,-324.18 275.65,-323.99 273.8,-323.74 271.97,-323.45 270.14,-323.11 268.32,-322.73 266.52,-322.3 264.74,-321.83 262.97,-321.32 261.23,-320.76 259.52,-320.17 257.83,-319.54 256.18,-318.87 254.57,-318.17 253,-317.44 251.48,-316.68 250.02,-315.89 248.61,-315.07 247.27,-314.23 246.01,-313.37 244.82,-312.49 243.71,-311.59 242.7,-310.68 241.78,-309.76 240.96,-308.83 240.26,-307.89 239.66,-306.95 239.19,-306.01 238.84,-305.07 238.62,-304.13 238.53,-303.2 238.58,-302.28 238.78,-301.37 239.11,-300.47 239.6,-299.59 240.23,-298.73 241.01,-297.89 241.94,-297.07 243.02,-296.28 244.25,-295.52 245.62,-294.79 247.13,-294.08 248.78,-293.42 250.56,-292.79 252.48,-292.19 254.51,-291.64 256.66,-291.13 258.92,-290.65 261.28,-290.23 263.73,-289.84 266.26,-289.51 268.87,-289.21 271.53,-288.97 274.25,-288.77 277.01,-288.63 279.79,-288.53 282.6,-288.48 285.4,-288.48 288.21,-288.53"/>
<text text-anchor="middle" x="284" y="-303.38" font-family="Times,serif" font-size="12.00">Executable</text>
</g>
<!-- legendNode1 -->
<g id="node2" class="node">
<title>legendNode1</title>
<polygon fill="none" stroke="black" points="126.11,-218.02 126.11,-232.93 93.83,-243.48 48.17,-243.48 15.89,-232.93 15.89,-218.02 48.17,-207.48 93.83,-207.48 126.11,-218.02"/>
<text text-anchor="middle" x="71" y="-222.38" font-family="Times,serif" font-size="12.00">Static Library</text>
</g>
<!-- legendNode0&#45;&gt;legendNode1 -->
<g id="edge1" class="edge">
<title>legendNode0&#45;&gt;legendNode1</title>
<path fill="none" stroke="black" d="M249.55,-293.1C219.51,-282.26 174.8,-266.02 136,-251.48 129.15,-248.91 121.91,-246.16 114.84,-243.46"/>
<polygon fill="black" stroke="black" points="115.96,-240.14 105.37,-239.82 113.45,-246.67 115.96,-240.14"/>
</g>
<!-- legendNode2 -->
<g id="node3" class="node">
<title>legendNode2</title>
<polygon fill="none" stroke="black" points="267.12,-218.02 267.12,-232.93 232.49,-243.48 183.51,-243.48 148.88,-232.93 148.88,-218.02 183.51,-207.48 232.49,-207.48 267.12,-218.02"/>
<polygon fill="none" stroke="black" points="271.1,-215.06 271.1,-235.9 233.08,-247.48 182.92,-247.48 144.9,-235.9 144.9,-215.06 182.92,-203.48 233.08,-203.48 271.1,-215.06"/>
<text text-anchor="middle" x="208" y="-222.38" font-family="Times,serif" font-size="12.00">Shared Library</text>
</g>
<!-- legendNode0&#45;&gt;legendNode2 -->
<g id="edge2" class="edge">
<title>legendNode0&#45;&gt;legendNode2</title>
<path fill="none" stroke="black" d="M268.25,-289.11C258.77,-279.25 246.42,-266.42 235.38,-254.94"/>
<polygon fill="black" stroke="black" points="237.81,-252.42 228.35,-247.64 232.76,-257.27 237.81,-252.42"/>
</g>
<!-- legendNode3 -->
<g id="node4" class="node">
<title>legendNode3</title>
<polygon fill="none" stroke="black" points="420.12,-218.02 420.12,-232.93 384.32,-243.48 333.68,-243.48 297.88,-232.93 297.88,-218.02 333.68,-207.48 384.32,-207.48 420.12,-218.02"/>
<polygon fill="none" stroke="black" points="424.11,-215.03 424.11,-235.93 384.89,-247.48 333.11,-247.48 293.89,-235.93 293.89,-215.03 333.11,-203.48 384.89,-203.48 424.11,-215.03"/>
<polygon fill="none" stroke="black" points="428.1,-212.03 428.1,-238.92 385.47,-251.48 332.53,-251.48 289.9,-238.92 289.9,-212.03 332.53,-199.48 385.47,-199.48 428.1,-212.03"/>
<text text-anchor="middle" x="359" y="-222.38" font-family="Times,serif" font-size="12.00">Module Library</text>
</g>
<!-- legendNode0&#45;&gt;legendNode3 -->
<!-- legendNode7 -->
<g id="node8" class="node">
<title>legendNode7</title>
<polygon fill="none" stroke="black" points="532,-243.48 446,-243.48 446,-207.48 532,-207.48 532,-243.48"/>
<text text-anchor="middle" x="489" y="-222.38" font-family="Times,serif" font-size="12.00">Custom Target</text>
</g>
<!-- legendNode0&#45;&gt;legendNode7 -->
<!-- legendNode4 -->
<g id="node5" class="node">
<title>legendNode4</title>
<polygon fill="none" stroke="black" points="165.64,-128.02 91,-140.46 16.36,-128.02 44.87,-107.89 137.13,-107.89 165.64,-128.02"/>
<text text-anchor="middle" x="91" y="-119.36" font-family="Times,serif" font-size="12.00">Interface Library</text>
</g>
<!-- legendNode1&#45;&gt;legendNode4 -->
<g id="edge4" class="edge">
<title>legendNode1&#45;&gt;legendNode4</title>
<path fill="none" stroke="black" stroke-dasharray="5,2" d="M74.39,-207.34C77.5,-191.62 82.16,-168.1 85.75,-149.96"/>
<polygon fill="black" stroke="black" points="89.21,-150.5 87.72,-140.01 82.35,-149.14 89.21,-150.5"/>
<text text-anchor="middle" x="107.5" y="-170.28" font-family="Times,serif" font-size="14.00">Interface</text>
</g>
<!-- legendNode5 -->
<g id="node6" class="node">
<title>legendNode5</title>
<polygon fill="none" stroke="black" points="306.68,-122.46 275.84,-140.46 214.16,-140.46 183.32,-122.46 214.16,-104.46 275.84,-104.46 306.68,-122.46"/>
<text text-anchor="middle" x="245" y="-119.36" font-family="Times,serif" font-size="12.00">Object Library</text>
</g>
<!-- legendNode2&#45;&gt;legendNode5 -->
<g id="edge5" class="edge">
<title>legendNode2&#45;&gt;legendNode5</title>
<path fill="none" stroke="black" stroke-dasharray="1,5" d="M215.85,-203.05C221.5,-187.61 229.18,-166.66 235.23,-150.13"/>
<polygon fill="black" stroke="black" points="238.6,-151.09 238.76,-140.5 232.03,-148.69 238.6,-151.09"/>
<text text-anchor="middle" x="249" y="-170.28" font-family="Times,serif" font-size="14.00">Private</text>
</g>
<!-- legendNode6 -->
<g id="node7" class="node">
<title>legendNode6</title>
<polygon fill="none" stroke="black" points="464.88,-118.45 451.04,-133.68 395,-140.46 338.96,-133.68 325.12,-118.45 363.9,-106.24 426.1,-106.24 464.88,-118.45"/>
<text text-anchor="middle" x="395" y="-119.36" font-family="Times,serif" font-size="12.00">Unknown Library</text>
</g>
<!-- legendNode3&#45;&gt;legendNode6 -->
<g id="edge6" class="edge">
<title>legendNode3&#45;&gt;legendNode6</title>
<path fill="none" stroke="black" d="M367.99,-199.25C373.37,-184.15 380.2,-164.99 385.64,-149.71"/>
<polygon fill="black" stroke="black" points="389.1,-150.44 389.16,-139.85 382.5,-148.09 389.1,-150.44"/>
</g>
<!-- node0 -->
<g id="node9" class="node">
<title>node0</title>
<polygon fill="none" stroke="black" points="647.63,-231.04 608,-243.48 568.37,-231.04 583.5,-210.92 632.5,-210.92 647.63,-231.04"/>
<text text-anchor="middle" x="608" y="-222.38" font-family="Times,serif" font-size="12.00">bvh_lib</text>
</g>
<!-- node1 -->
<g id="node10" class="node">
<title>node1</title>
<polygon fill="none" stroke="black" points="625.96,-35.28 575,-47.72 524.04,-35.28 543.5,-15.15 606.5,-15.15 625.96,-35.28"/>
<text text-anchor="middle" x="575" y="-26.62" font-family="Times,serif" font-size="12.00">double_lib</text>
</g>
<!-- node0&#45;&gt;node1 -->
<g id="edge8" class="edge">
<title>node0&#45;&gt;node1</title>
<path fill="none" stroke="black" stroke-dasharray="5,2" d="M600.55,-210.69C592.96,-195.82 581.66,-171.23 577,-148.48 570.73,-117.91 571.23,-81.93 572.65,-57.86"/>
<polygon fill="black" stroke="black" points="576.15,-57.92 573.35,-47.7 569.17,-57.44 576.15,-57.92"/>
</g>
<!-- node2 -->
<g id="node11" class="node">
<title>node2</title>
<polygon fill="none" stroke="black" points="665.63,-128.02 626,-140.46 586.37,-128.02 601.5,-107.89 650.5,-107.89 665.63,-128.02"/>
<text text-anchor="middle" x="626" y="-119.36" font-family="Times,serif" font-size="12.00">geo_lib</text>
</g>
<!-- node0&#45;&gt;node2 -->
<g id="edge10" class="edge">
<title>node0&#45;&gt;node2</title>
<path fill="none" stroke="black" stroke-dasharray="5,2" d="M610.43,-210.85C613.2,-195.31 617.79,-169.53 621.27,-149.98"/>
<polygon fill="black" stroke="black" points="624.77,-150.33 623.08,-139.87 617.88,-149.1 624.77,-150.33"/>
</g>
<!-- node2&#45;&gt;node1 -->
<g id="edge9" class="edge">
<title>node2&#45;&gt;node1</title>
<path fill="none" stroke="black" stroke-dasharray="5,2" d="M618.25,-107.68C610.35,-93.62 597.94,-71.53 588.44,-54.62"/>
<polygon fill="black" stroke="black" points="591.45,-52.84 583.5,-45.84 585.35,-56.27 591.45,-52.84"/>
</g>
<!-- node3 -->
<g id="node12" class="node">
<title>node3</title>
<polygon fill="none" stroke="black" points="766.77,-288.53 769.27,-288.63 771.75,-288.77 774.18,-288.97 776.58,-289.21 778.91,-289.51 781.18,-289.84 783.38,-290.23 785.5,-290.65 787.52,-291.13 789.45,-291.64 791.28,-292.19 793,-292.79 794.6,-293.42 796.08,-294.08 797.43,-294.79 798.66,-295.52 799.76,-296.28 800.73,-297.07 801.56,-297.89 802.27,-298.73 802.83,-299.59 803.27,-300.47 803.57,-301.37 803.74,-302.28 803.79,-303.2 803.71,-304.13 803.52,-305.07 803.2,-306.01 802.78,-306.95 802.24,-307.89 801.61,-308.83 800.88,-309.76 800.05,-310.68 799.14,-311.59 798.15,-312.49 797.08,-313.37 795.95,-314.23 794.75,-315.07 793.49,-315.89 792.17,-316.68 790.81,-317.44 789.4,-318.17 787.96,-318.87 786.48,-319.54 784.96,-320.17 783.43,-320.76 781.86,-321.32 780.28,-321.83 778.68,-322.3 777.06,-322.73 775.43,-323.11 773.79,-323.45 772.15,-323.74 770.49,-323.99 768.83,-324.18 767.17,-324.33 765.5,-324.43 763.83,-324.48 762.17,-324.48 760.5,-324.43 758.83,-324.33 757.17,-324.18 755.51,-323.99 753.85,-323.74 752.21,-323.45 750.57,-323.11 748.94,-322.73 747.32,-322.3 745.72,-321.83 744.14,-321.32 742.57,-320.76 741.04,-320.17 739.52,-319.54 738.04,-318.87 736.6,-318.17 735.19,-317.44 733.83,-316.68 732.51,-315.89 731.25,-315.07 730.05,-314.23 728.92,-313.37 727.85,-312.49 726.86,-311.59 725.95,-310.68 725.12,-309.76 724.39,-308.83 723.76,-307.89 723.22,-306.95 722.8,-306.01 722.48,-305.07 722.29,-304.13 722.21,-303.2 722.26,-302.28 722.43,-301.37 722.73,-300.47 723.17,-299.59 723.73,-298.73 724.44,-297.89 725.27,-297.07 726.24,-296.28 727.34,-295.52 728.57,-294.79 729.92,-294.08 731.4,-293.42 733,-292.79 734.72,-292.19 736.55,-291.64 738.48,-291.13 740.5,-290.65 742.62,-290.23 744.82,-289.84 747.09,-289.51 749.42,-289.21 751.82,-288.97 754.25,-288.77 756.73,-288.63 759.23,-288.53 761.74,-288.48 764.26,-288.48 766.77,-288.53"/>
<text text-anchor="middle" x="763" y="-303.38" font-family="Times,serif" font-size="12.00">example1</text>
</g>
<!-- node4 -->
<g id="node13" class="node">
<title>node4</title>
<polygon fill="none" stroke="black" points="796.13,-218.02 796.13,-232.93 776.72,-243.48 749.28,-243.48 729.87,-232.93 729.87,-218.02 749.28,-207.48 776.72,-207.48 796.13,-218.02"/>
<text text-anchor="middle" x="763" y="-222.38" font-family="Times,serif" font-size="12.00">ogl_lib</text>
</g>
<!-- node3&#45;&gt;node4 -->
<g id="edge16" class="edge">
<title>node3&#45;&gt;node4</title>
<path fill="none" stroke="black" stroke-dasharray="1,5" d="M763,-288.34C763,-278.19 763,-265.11 763,-253.6"/>
<polygon fill="black" stroke="black" points="766.5,-253.59 763,-243.59 759.5,-253.59 766.5,-253.59"/>
</g>
<!-- node4&#45;&gt;node2 -->
<g id="edge11" class="edge">
<title>node4&#45;&gt;node2</title>
<path fill="none" stroke="black" d="M743.66,-210.22C719.17,-192.16 676.95,-161.03 650.31,-141.38"/>
<polygon fill="black" stroke="black" points="652.37,-138.55 642.25,-135.44 648.22,-144.19 652.37,-138.55"/>
</g>
<!-- node5 -->
<g id="node14" class="node">
<title>node5</title>
<polygon fill="none" stroke="black" points="756.79,-115 756.79,-129.91 735.24,-140.46 704.76,-140.46 683.21,-129.91 683.21,-115 704.76,-104.46 735.24,-104.46 756.79,-115"/>
<text text-anchor="middle" x="720" y="-119.36" font-family="Times,serif" font-size="12.00">glad_lib</text>
</g>
<!-- node4&#45;&gt;node5 -->
<g id="edge12" class="edge">
<title>node4&#45;&gt;node5</title>
<path fill="none" stroke="black" d="M755.71,-207.34C749.03,-191.67 739.06,-168.23 731.35,-150.11"/>
<polygon fill="black" stroke="black" points="734.47,-148.51 727.33,-140.68 728.03,-151.25 734.47,-148.51"/>
</g>
<!-- node6 -->
<g id="node15" class="node">
<title>node6</title>
<polygon fill="none" stroke="black" points="833,-115 833,-129.91 817.18,-140.46 794.82,-140.46 779,-129.91 779,-115 794.82,-104.46 817.18,-104.46 833,-115"/>
<polygon fill="none" stroke="black" points="837,-112.86 837,-132.05 818.39,-144.46 793.61,-144.46 775,-132.05 775,-112.86 793.61,-100.46 818.39,-100.46 837,-112.86"/>
<text text-anchor="middle" x="806" y="-119.36" font-family="Times,serif" font-size="12.00">glfw</text>
</g>
<!-- node4&#45;&gt;node6 -->
<g id="edge13" class="edge">
<title>node4&#45;&gt;node6</title>
<path fill="none" stroke="black" d="M770.29,-207.34C776.52,-192.71 785.63,-171.32 793.08,-153.8"/>
<polygon fill="black" stroke="black" points="796.33,-155.11 797.03,-144.54 789.89,-152.37 796.33,-155.11"/>
</g>
<!-- node7 -->
<g id="node16" class="node">
<title>node7</title>
<polygon fill="none" stroke="black" points="956.53,-111.67 956.53,-133.24 926.93,-148.5 885.07,-148.5 855.47,-133.24 855.47,-111.67 885.07,-96.41 926.93,-96.41 956.53,-111.67"/>
<text text-anchor="middle" x="906" y="-125.86" font-family="Times,serif" font-size="12.00">glm</text>
<text text-anchor="middle" x="906" y="-112.86" font-family="Times,serif" font-size="12.00">(glm::glm)</text>
</g>
<!-- node4&#45;&gt;node7 -->
<g id="edge15" class="edge">
<title>node4&#45;&gt;node7</title>
<path fill="none" stroke="black" d="M782.58,-210.64C804.56,-195.12 840.73,-169.57 868.25,-150.13"/>
<polygon fill="black" stroke="black" points="870.33,-152.94 876.48,-144.31 866.3,-147.22 870.33,-152.94"/>
</g>
<!-- node8 -->
<g id="node17" class="node">
<title>node8</title>
<polygon fill="none" stroke="black" points="1016.26,-38.97 906,-59.65 795.74,-38.97 837.86,-5.5 974.14,-5.5 1016.26,-38.97"/>
<text text-anchor="middle" x="906" y="-33.12" font-family="Times,serif" font-size="12.00">glm&#45;header&#45;only</text>
<text text-anchor="middle" x="906" y="-20.12" font-family="Times,serif" font-size="12.00">(glm::glm&#45;header&#45;only)</text>
</g>
<!-- node7&#45;&gt;node8 -->
<g id="edge14" class="edge">
<title>node7&#45;&gt;node8</title>
<path fill="none" stroke="black" d="M906,-96.18C906,-88.04 906,-78.82 906,-69.92"/>
<polygon fill="black" stroke="black" points="909.5,-69.7 906,-59.7 902.5,-69.7 909.5,-69.7"/>
</g>
</g>
</svg>
